HIERARCHY
ROOT Hips
{
	OFFSET 0.00000 0.00000 0.00000
	CHANNELS 6 Xposition Yposition Zposition Zrotation Yrotation Xrotation 
	JOINT LHipJoint
	{
		OFFSET 0 0 0
		CHANNELS 3 Zrotation Yrotation Xrotation
		JOINT LeftUpLeg
		{
			OFFSET 1.40001 -1.72600 0.84541
			CHANNELS 3 Zrotation Yrotation Xrotation
			JOINT LeftLeg
			{
				OFFSET 2.34760 -6.44999 0.00000
				CHANNELS 3 Zrotation Yrotation Xrotation
				JOINT LeftFoot
				{
					OFFSET 2.50650 -6.88655 0.00000
					CHANNELS 3 Zrotation Yrotation Xrotation
					JOINT LeftToeBase
					{
						OFFSET 0.12464 -0.34243 1.95563
						CHANNELS 3 Zrotation Yrotation Xrotation
						End Site
						{
							OFFSET 0.00000 -0.00000 1.00479
						}
					}
				}
			}
		}
	}
	JOINT RHipJoint
	{
		OFFSET 0 0 0
		CHANNELS 3 Zrotation Yrotation Xrotation
		JOINT RightUpLeg
		{
			OFFSET -1.40958 -1.72600 0.84541
			CHANNELS 3 Zrotation Yrotation Xrotation
			JOINT RightLeg
			{
				OFFSET -2.37905 -6.53640 0.00000
				CHANNELS 3 Zrotation Yrotation Xrotation
				JOINT RightFoot
				{
					OFFSET -2.50470 -6.88163 0.00000
					CHANNELS 3 Zrotation Yrotation Xrotation
					JOINT RightToeBase
					{
						OFFSET -0.12236 -0.33619 1.81785
						CHANNELS 3 Zrotation Yrotation Xrotation
						End Site
						{
							OFFSET -0.00000 -0.00000 0.93746
						}
					}
				}
			}
		}
	}
	JOINT LowerBack
	{
		OFFSET 0 0 0
		CHANNELS 3 Zrotation Yrotation Xrotation
		JOINT Spine
		{
			OFFSET -0.02146 1.96915 0.26424
			CHANNELS 3 Zrotation Yrotation Xrotation
			JOINT Spine1
			{
				OFFSET 0.01522 1.99484 0.02086
				CHANNELS 3 Zrotation Yrotation Xrotation
				JOINT Neck
				{
					OFFSET 0 0 0
					CHANNELS 3 Zrotation Yrotation Xrotation
					JOINT Neck1
					{
						OFFSET -0.02954 1.71757 0.03505
						CHANNELS 3 Zrotation Yrotation Xrotation
						JOINT Head
						{
							OFFSET 0.04170 1.65781 -0.11024
							CHANNELS 3 Zrotation Yrotation Xrotation
							End Site
							{
								OFFSET 0.01600 1.81465 -0.05144
							}
						}
					}
				}
				JOINT LeftShoulder
				{
					OFFSET 0 0 0
					CHANNELS 3 Zrotation Yrotation Xrotation
					JOINT LeftArm
					{
						OFFSET 2.77679 1.60868 -0.78649
						CHANNELS 3 Zrotation Yrotation Xrotation
						JOINT LeftForeArm
						{
							OFFSET 4.62672 -0.00000 -0.00000
							CHANNELS 3 Zrotation Yrotation Xrotation
							JOINT LeftHand
							{
								OFFSET 3.11018 -0.00000 -0.00000
								CHANNELS 3 Zrotation Yrotation Xrotation
								JOINT LeftFingerBase
								{
									OFFSET 0 0 0
									CHANNELS 3 Zrotation Yrotation Xrotation
									JOINT LeftHandIndex1
									{
										OFFSET 0.74383 -0.00000 -0.00000
										CHANNELS 3 Zrotation Yrotation Xrotation
										End Site
										{
											OFFSET 0.59970 -0.00000 -0.00000
										}
									}
								}
								JOINT LThumb
								{
									OFFSET 0 0 0
									CHANNELS 3 Zrotation Yrotation Xrotation
									End Site
									{
										OFFSET 0.60885 -0.00000 0.60885
									}
								}
							}
						}
					}
				}
				JOINT RightShoulder
				{
					OFFSET 0 0 0
					CHANNELS 3 Zrotation Yrotation Xrotation
					JOINT RightArm
					{
						OFFSET -2.73247 1.63658 -0.74740
						CHANNELS 3 Zrotation Yrotation Xrotation
						JOINT RightForeArm
						{
							OFFSET -4.55919 -0.00000 -0.00000
							CHANNELS 3 Zrotation Yrotation Xrotation
							JOINT RightHand
							{
								OFFSET -3.22748 -0.00000 -0.00000
								CHANNELS 3 Zrotation Yrotation Xrotation
								JOINT RightFingerBase
								{
									OFFSET 0 0 0
									CHANNELS 3 Zrotation Yrotation Xrotation
									JOINT RightHandIndex1
									{
										OFFSET -0.70088 -0.00000 -0.00000
										CHANNELS 3 Zrotation Yrotation Xrotation
										End Site
										{
											OFFSET -0.56507 -0.00000 -0.00000
										}
									}
								}
								JOINT RThumb
								{
									OFFSET 0 0 0
									CHANNELS 3 Zrotation Yrotation Xrotation
									End Site
									{
										OFFSET -0.57370 -0.00000 0.57370
									}
								}
							}
						}
					}
				}
			}
		}
	}
}
MOTION
Frames: 13
Frame Time: .0083333
-0.2027 16.4519 -38.1708 0 0 0 0 0 0 -21 0 0 0 0 0 0 0 0 0 0 0 0 0 0 21 0 0 0 0 0 0 0 0 0 0 0 0 0 0 0 0 0 0 0 0 0 0 -16 0 0 21 0 0 11 0 0 0 -8 0 0 0 0 0 0 0 0 0 0 0 0 0 0 0 0 0 0 0 0 8 0 0 0 0 0 0 0 0 0 0 0 0 0 0 0 0 0
-0.2027 16.4519 -38.1708 -0.1419 4.1879 14.9174 0.0000 0.0000 0.0000 -13.6419 -9.2085 -44.6618 8.6329 16.5656 54.8117 0.2253 2.9343 -10.5418 0.0223 -0.9649 -2.6523 0.0000 0.0000 0.0000 23.0867 4.3134 -23.6338 -3.2623 -11.1080 32.6450 -1.1923 15.0932 -20.7849 -0.0321 1.1573 -3.1817 0.5448 -1.1198 -14.4681 1.5467 -1.6324 -3.7266 1.0244 -0.8022 4.1985 -6.2248 -9.1520 1.4463 -4.1851 -11.9317 7.7669 -0.5042 -6.2057 2.3299 0.0000 0.0000 0.0000 -83.9298 4.8228 -15.0154 8.8667 -14.9477 -1.1655 -0.0000 -0.0000 30.0814 9.2494 -16.2809 -2.6140 -7.1250 0.0000 -0.0000 -12.3367 13.7637 9.2691 0.0000 0.0000 0.0000 79.2121 9.4247 31.9694 -24.3548 35.5372 -7.9118 0.0000 -0.0000 -15.8801 -18.4173 -38.3270 11.6678 7.1250 -0.0000 -0.0000 23.1803 -68.4635 -13.3204
-0.1723 16.4774 -37.9803 -0.2615 3.4153 14.9326 0.0000 0.0000 0.0000 -13.7404 -8.9316 -44.4834 7.7181 15.9079 51.5408 0.2465 3.1917 -11.1122 0.0016 -0.2582 -0.7094 0.0000 0.0000 0.0000 23.1714 3.3300 -22.6742 -3.0620 -10.7947 31.5905 -1.0947 16.5009 -20.5521 -0.0170 0.8431 -2.3171 0.7935 -0.8676 -15.0518 1.5264 -1.3482 -3.5518 0.9043 -0.6589 4.6884 -6.2850 -9.1314 1.6504 -4.1581 -11.9392 7.3536 -0.4601 -6.1957 2.1621 -0.0000 -0.0000 0.0000 -83.9002 5.1776 -15.6148 8.8295 -14.8883 -1.1559 -0.0000 -0.0000 30.3798 9.2505 -16.0986 -2.5858 -7.1250 0.0000 -0.0000 -12.3400 13.9434 9.2236 -0.0000 -0.0000 0.0000 78.6396 10.3139 32.9272 -25.0235 36.2280 -8.3038 0.0000 -0.0000 -16.0963 -18.3322 -36.4729 11.1425 7.1250 -0.0000 -0.0000 20.9444 -66.7691 -11.1898
-0.1560 16.4949 -37.8124 -0.1794 2.9933 14.9793 0.0000 0.0000 0.0000 -13.9101 -8.9628 -44.3746 6.8420 15.1974 48.2742 0.2583 3.2969 -11.3955 0.0022 -0.3040 -0.8352 0.0000 0.0000 0.0000 23.1179 2.4427 -21.9876 -2.9462 -10.6075 30.9672 -1.0861 17.2765 -20.7678 -0.0344 1.1966 -3.2900 0.7982 -0.8082 -16.0002 1.4233 -1.2908 -3.0361 0.7890 -0.6272 5.7469 -6.2242 -9.1686 1.7929 -3.9923 -12.0364 6.6961 -0.3885 -6.2172 1.9283 -0.0000 0.0000 0.0000 -83.7512 4.7079 -17.1158 8.6524 -14.6047 -1.1108 -0.0000 -0.0000 31.3699 9.4849 -16.3157 -2.6872 -7.1250 0.0000 -0.0000 -12.1802 13.7126 9.1592 -0.0000 0.0000 0.0000 78.2917 11.8370 33.6247 -25.8234 37.0338 -8.7811 0.0000 -0.0000 -16.2670 -17.6875 -35.2276 10.4230 7.1250 -0.0000 -0.0000 20.3110 -65.4423 -10.2227
-0.1511 16.4985 -37.6626 -0.2638 2.7601 15.0621 0.0000 0.0000 0.0000 -13.7331 -9.1349 -44.3034 5.9756 14.4047 44.8838 0.2573 3.2243 -11.3264 0.0114 -0.6897 -1.8953 0.0000 0.0000 0.0000 23.2848 1.8904 -21.2785 -2.8178 -10.3941 30.2626 -1.0263 17.7918 -20.5560 -0.0338 1.1864 -3.2619 0.6433 -0.8399 -15.2670 1.5696 -1.2959 -3.5193 1.0417 -0.6348 4.8432 -6.3737 -9.1439 1.9027 -4.2317 -11.9848 7.0717 -0.4456 -6.2109 2.0262 0.0000 0.0000 0.0000 -83.8652 5.5644 -18.2693 8.5667 -14.4672 -1.0893 -0.0000 -0.0000 32.2327 9.4703 -16.7904 -2.7588 -7.1250 0.0000 -0.0000 -12.1810 13.2450 9.2829 0.0000 0.0000 0.0000 77.7499 12.0123 34.1426 -26.9189 38.1018 -9.4491 0.0000 -0.0000 -18.1233 -17.8754 -38.0570 11.2446 7.1250 -0.0000 -0.0000 23.4544 -68.0569 -13.2711
-0.1408 16.4980 -37.5046 -0.3405 2.4324 15.0914 0.0000 0.0000 0.0000 -13.6210 -9.2420 -44.0641 5.1339 13.5331 41.3982 0.2396 3.4332 -11.1662 0.0887 -1.9209 -5.2872 0.0000 0.0000 0.0000 23.3886 1.2049 -20.5739 -2.7015 -10.1954 29.6117 -0.9222 18.5818 -20.1704 -0.0142 0.7683 -2.1115 0.5527 -0.7814 -14.4511 1.6571 -1.1890 -3.9816 1.2166 -0.5838 3.9161 -6.4601 -9.1380 1.7578 -4.4506 -11.9342 7.5176 -0.5231 -6.2088 2.1899 -0.0000 0.0000 0.0000 -83.8701 6.5876 -18.2270 8.6390 -14.5833 -1.1075 -0.0000 -0.0000 32.1739 9.4046 -16.6579 -2.7183 -7.1250 0.0000 -0.0000 -12.2267 13.3807 9.2836 -0.0000 0.0000 0.0000 77.1949 12.2264 34.6471 -27.5452 38.6942 -9.8381 0.0000 -0.0000 -19.0647 -17.5859 -37.3066 10.8738 7.1250 -0.0000 -0.0000 22.8220 -67.3009 -12.5102
-0.1274 16.5038 -37.3405 -0.5366 2.0327 15.1008 0.0000 0.0000 0.0000 -13.3684 -9.2625 -43.7648 4.3372 12.5961 37.8748 0.2218 3.6245 -10.9897 0.2565 -3.2586 -8.9995 0.0000 0.0000 0.0000 23.6091 0.1801 -19.9626 -2.5899 -9.9996 28.9754 -0.8072 19.6112 -19.8508 -0.0089 0.6098 -1.6758 0.8693 -0.6586 -15.7524 1.5655 -1.1100 -3.1036 0.9390 -0.5396 5.5401 -6.3561 -9.2027 1.4584 -4.1002 -12.0472 6.7528 -0.4219 -6.2328 2.0071 0.0000 0.0000 0.0000 -83.5187 5.4664 -19.6803 8.4401 -14.2638 -1.0579 -0.0000 -0.0000 33.3688 9.6427 -16.3628 -2.7404 -7.1250 0.0000 -0.0000 -12.0750 13.6548 9.0915 0.0000 0.0000 0.0000 76.9096 14.3235 35.0342 -28.3472 39.4340 -10.3435 0.0000 -0.0000 -19.5296 -17.6791 -37.9657 11.0941 7.1250 -0.0000 -0.0000 23.5624 -67.9160 -13.2604
-0.1208 16.5102 -37.1836 -0.8118 1.5708 15.1540 0.0000 0.0000 0.0000 -12.8895 -9.3226 -43.4074 3.5884 11.5916 34.3020 0.2246 3.4297 -10.8909 0.3176 -3.6226 -10.0174 0.0000 0.0000 0.0000 23.8955 -0.4256 -19.2519 -2.4743 -9.7910 28.3025 -0.7113 20.3771 -19.5752 -0.0055 0.4793 -1.3169 1.0773 -0.5840 -15.0113 1.6340 -1.0244 -3.5940 0.9182 -0.4982 4.6151 -6.4358 -9.1321 1.6965 -4.2461 -11.9523 7.0598 -0.4509 -6.1985 2.0612 -0.0000 0.0000 0.0000 -83.3803 6.3513 -21.2053 8.2568 -13.9682 -1.0132 -0.0000 -0.0000 34.6444 9.7225 -16.4683 -2.7808 -7.1250 0.0000 -0.0000 -12.0202 13.5446 9.0769 -0.0000 0.0000 0.0000 76.5474 14.3210 36.2103 -29.2984 40.2844 -10.9531 0.0000 -0.0000 -20.7207 -19.3369 -36.5934 11.8156 7.1250 -0.0000 -0.0000 19.9012 -67.1768 -10.7978
-0.1106 16.5043 -37.0270 -0.9578 1.1957 15.2513 0.0000 0.0000 0.0000 -12.4374 -9.6969 -42.8666 2.9074 10.5435 30.7555 0.2301 3.2400 -10.8514 0.3505 -3.8038 -10.5252 0.0000 0.0000 0.0000 24.0025 -0.8154 -18.4438 -2.3474 -9.5550 27.5473 -0.6278 20.8418 -19.2519 -0.0024 0.3175 -0.8725 1.0445 -0.5398 -14.2664 1.7512 -0.9402 -4.1312 1.0827 -0.4600 3.6480 -6.5946 -9.0420 1.7846 -4.4006 -11.8105 7.5294 -0.4842 -6.1504 2.2003 0.0000 -0.0000 0.0000 -83.4224 7.4724 -21.5426 8.2692 -13.9883 -1.0162 -0.0000 -0.0000 34.7965 9.7683 -16.6792 -2.8288 -7.1250 0.0000 -0.0000 -11.9865 13.3327 9.1051 0.0000 -0.0000 0.0000 76.1012 14.3601 36.6007 -30.1681 41.0370 -11.5198 0.0000 -0.0000 -20.3822 -18.9406 -34.1262 10.8974 7.1250 -0.0000 -0.0000 17.7625 -64.7654 -8.6227
-0.0960 16.4959 -36.8673 -1.1093 0.8638 15.3379 0.0000 0.0000 0.0000 -11.9291 -10.1786 -42.2915 2.3061 9.4764 27.2973 0.2188 3.4068 -10.7666 0.3795 -3.9565 -10.9542 0.0000 0.0000 0.0000 24.0951 -1.2334 -17.6310 -2.2230 -9.3158 26.7884 -0.5866 21.1907 -19.1604 -0.0048 0.4472 -1.2288 1.1010 -0.4212 -14.4571 1.7782 -0.7989 -4.0652 1.1021 -0.3895 3.8182 -6.5740 -9.0654 1.6653 -4.4217 -11.8279 7.5859 -0.5027 -6.1619 2.2375 -0.0000 0.0000 0.0000 -83.2625 7.7304 -21.2975 8.2996 -14.0373 -1.0236 -0.0000 -0.0000 34.5265 9.7407 -16.5421 -2.7982 -7.1250 0.0000 -0.0000 -12.0070 13.4703 9.0858 -0.0000 0.0000 0.0000 75.8749 15.0679 36.4276 -31.0154 41.7480 -12.0801 0.0000 -0.0000 -20.3592 -18.3665 -33.2906 10.3279 7.1250 -0.0000 -0.0000 17.6473 -63.8203 -8.1772
-0.0819 16.4962 -36.7005 -1.3292 0.5977 15.4631 0.0000 0.0000 0.0000 -11.3313 -10.6142 -41.7845 1.7872 8.4079 23.9601 0.1987 3.7171 -10.6304 0.4426 -4.2686 -11.8336 0.0000 0.0000 0.0000 24.2479 -1.7499 -16.8753 -2.1029 -9.0773 26.0374 -0.4744 21.8887 -18.7958 -0.0008 0.1794 -0.4929 1.3163 -0.2995 -14.3993 1.7564 -0.6637 -4.2021 0.9816 -0.3227 3.6386 -6.4471 -9.0831 1.4760 -4.5363 -11.8176 7.8692 -0.5777 -6.1673 2.3493 0.0000 0.0000 0.0000 -82.9743 8.2481 -21.1349 8.3382 -14.0996 -1.0330 -0.0000 -0.0000 34.2470 9.6604 -16.1545 -2.7115 -7.1250 0.0000 -0.0000 -12.0672 13.8593 9.0319 0.0000 0.0000 0.0000 75.6587 15.4622 36.6449 -31.7835 42.3739 -12.5947 0.0000 -0.0000 -20.8683 -17.0909 -36.9611 10.4741 7.1250 -0.0000 -0.0000 22.9672 -66.8448 -12.3560
-0.0682 16.4960 -36.5342 -1.4188 0.2787 15.6115 0.0000 0.0000 0.0000 -10.8948 -10.9936 -41.2814 1.3494 7.3539 20.7681 0.1819 4.0990 -10.6261 0.4144 -4.1322 -11.4489 0.0000 0.0000 0.0000 24.2414 -2.2355 -16.1338 -1.9845 -8.8338 25.2768 -0.3483 22.4943 -18.3063 -0.0001 -0.0529 0.1453 1.3790 -0.2179 -15.3952 1.7270 -0.6002 -3.7391 0.9239 -0.2871 4.6632 -6.4468 -9.0894 1.4901 -4.3087 -11.8646 7.2974 -0.4865 -6.1663 2.1718 -0.0000 0.0000 0.0000 -82.7129 7.7173 -22.1330 8.2026 -13.8807 -1.0002 -0.0000 -0.0000 34.9574 9.5870 -15.8295 -2.6379 -7.1250 0.0000 -0.0000 -12.1227 14.1857 8.9895 -0.0000 0.0000 0.0000 75.2521 16.8943 37.1217 -32.1184 42.6414 -12.8210 0.0000 -0.0000 -22.0381 -17.9722 -37.7226 11.2256 7.1250 -0.0000 -0.0000 22.9011 -67.7890 -12.8073
-0.0534 16.4885 -36.3718 -1.5234 -0.1414 15.7644 0.0000 0.0000 0.0000 -10.5056 -11.1881 -40.9500 1.0093 6.3925 17.9275 0.1795 4.4197 -10.8609 0.4026 -4.0739 -11.2845 0.0000 0.0000 0.0000 24.2176 -2.5898 -15.3391 -1.8645 -8.5780 24.4838 -0.2588 22.9791 -18.0041 -0.0004 0.1293 -0.3553 1.4924 -0.1282 -15.7586 1.7062 -0.5101 -3.6886 0.8548 -0.2408 4.9112 -6.5657 -9.0191 1.6201 -4.1419 -11.8026 6.9994 -0.3987 -6.1242 2.0686 -0.0000 -0.0000 0.0000 -82.5389 7.7710 -23.3769 8.0975 -13.7108 -0.9751 -0.0000 -0.0000 35.9436 9.4648 -16.1696 -2.6581 -7.1250 0.0000 -0.0000 -12.1965 13.8583 9.1336 -0.0000 -0.0000 0.0000 74.9895 17.6559 37.3133 -32.8758 43.2343 -13.3369 0.0000 -0.0000 -21.8263 -16.9324 -37.6025 10.5235 7.1250 -0.0000 -0.0000 23.9545 -67.3684 -13.1958
